<!DOCTYPE svg PUBLIC "-//W3C//DTD SVG 1.1//EN" "http://www.w3.org/Graphics/SVG/1.1/DTD/svg11.dtd" [
	<!ENTITY ns_flows "http://ns.adobe.com/Flows/1.0/">
]><svg xmlns="http://www.w3.org/2000/svg" width="96" height="54" viewBox="0 0 96 54"><path fill-rule="evenodd" clip-rule="evenodd" fill="#069" d="M76.722 13.957c-2.66 0-4.816-2.156-4.816-4.816s2.156-4.815 4.816-4.815c2.66 0 4.815 2.156 4.815 4.816s-2.156 4.817-4.815 4.817m-7.506 5.637V6.077l-3.504 6.817S63.336 8.64 58.957 8.83c-4.378.187-3.753 4.19-1.5 4.565 1.8.3 8.91.92 11.76 6.2zm-44.16-9.952v7.88s7.005 1.564 7.005-3.877-7.004-4.003-7.004-4.003zM51.713 0h-20.4c2.673.26 9.876 1.71 11.635 9.78.12-.88.3-1.588.497-2.015.866-1.876 3.1-5.933 8.268-7.765zm17.503 0h-5.293c2.537.8 4.272 1.958 5.293 2.802V0zm9.424 46.027c0 1.03.196 1.8.586 2.314.392.516.875.773 1.454.773.58 0 1.063-.256 1.445-.767.384-.51.573-1.293.573-2.352 0-1.037-.186-1.804-.56-2.302-.37-.495-.857-.743-1.46-.743-.602 0-1.093.25-1.47.75-.38.503-.568 1.278-.568 2.327zm-1.525.06c0-1.065.156-1.942.473-2.632.314-.69.728-1.204 1.235-1.542.51-.337 1.125-.506 1.85-.506 1.05 0 1.904.4 2.566 1.202.66.8.99 1.942.99 3.423 0 1.496-.35 2.667-1.05 3.51-.613.744-1.447 1.115-2.5 1.115-1.064 0-1.9-.368-2.516-1.104-.7-.84-1.05-1.997-1.05-3.466zm-5.636-3.014v5.925h1.112c.475 0 .82-.044 1.033-.133.214-.09.39-.226.524-.407.137-.18.25-.466.34-.857.09-.39.132-.903.132-1.543 0-.663-.045-1.186-.137-1.568-.092-.382-.233-.685-.428-.903-.193-.22-.427-.364-.704-.433-.208-.055-.607-.08-1.2-.08h-.674zm-1.475-1.513h2.702c.684 0 1.2.077 1.548.23.348.15.67.41.96.772.294.36.522.83.69 1.408.168.578.25 1.295.25 2.153 0 .775-.087 1.446-.262 2.02-.175.57-.397 1.022-.666 1.357-.27.333-.592.583-.973.752s-.87.255-1.47.255h-2.78V41.56zM66.5 46.967l-1.007-3.32-.994 3.32h2zm2.728 3.54h-1.61l-.64-2.034h-2.93l-.604 2.034H61.87l2.855-8.947h1.568l2.935 8.947zm-12.53-5.165h1.1c.67 0 1.098-.03 1.28-.088.184-.058.332-.177.446-.355.112-.18.17-.42.17-.715 0-.286-.058-.515-.17-.688-.114-.173-.27-.292-.464-.356-.138-.045-.54-.066-1.202-.066h-1.16v2.268zm-1.477 5.165V41.56h3.12c.797 0 1.368.08 1.71.24s.623.44.84.837c.222.397.33.872.33 1.425 0 .7-.166 1.264-.502 1.69-.337.428-.814.696-1.43.805.315.23.578.477.784.748.21.27.492.756.85 1.456l.89 1.747H60.05l-1.075-1.948c-.386-.703-.647-1.145-.787-1.322-.138-.177-.286-.298-.44-.366-.153-.066-.4-.1-.743-.1h-.307v3.735H55.22zm-4.614 0v-7.434h-2.18V41.56h5.83v1.514h-2.173v7.434h-1.477zm-8.86-2.91l1.447-.174c.163 1.144.696 1.717 1.6 1.717.446 0 .798-.116 1.054-.352.258-.233.385-.523.385-.87 0-.203-.044-.376-.133-.518-.09-.144-.228-.26-.412-.353-.183-.092-.625-.243-1.33-.46-.63-.19-1.093-.398-1.384-.623-.293-.223-.527-.517-.7-.88-.173-.366-.258-.758-.258-1.176 0-.487.11-.927.332-1.318.223-.39.53-.686.918-.886.392-.198.873-.298 1.448-.298.863 0 1.536.233 2.02.702.484.467.74 1.138.768 2.008l-1.48.08c-.068-.48-.208-.817-.424-1.01-.215-.188-.523-.284-.92-.284s-.708.083-.922.25c-.217.166-.325.372-.325.622 0 .244.1.448.295.614.196.17.646.35 1.348.55.746.217 1.284.444 1.615.682s.585.546.76.92c.175.378.262.834.262 1.37 0 .778-.238 1.43-.716 1.96-.48.53-1.227.794-2.244.794-1.8 0-2.8-1.022-3.003-3.068zm-3.136-.63l-1.008-3.32-.994 3.32h2.002zm2.726 3.54h-1.61l-.64-2.034h-2.93l-.604 2.034h-1.576l2.856-8.947h1.57l2.934 8.947zm-12.543-7.434v5.925h1.112c.475 0 .82-.044 1.034-.133.213-.09.388-.226.524-.407.137-.18.25-.466.34-.857.09-.39.132-.903.132-1.543 0-.663-.046-1.186-.137-1.568-.093-.382-.234-.685-.428-.903-.194-.22-.427-.364-.704-.433-.208-.055-.608-.08-1.202-.08h-.673zm-1.475-1.513h2.702c.683 0 1.2.077 1.548.23.348.15.67.41.96.772.293.36.522.83.69 1.408.168.578.25 1.295.25 2.153 0 .775-.086 1.446-.26 2.02-.176.57-.398 1.022-.668 1.357-.27.333-.59.583-.973.752s-.867.255-1.467.255h-2.78V41.56zm-3.503 5.407l-1.008-3.32-.994 3.32h2.002zm2.727 3.54h-1.61l-.642-2.034h-2.93l-.604 2.034H19.18l2.858-8.947h1.568l2.936 8.947zm-9.314-3.29l1.435.555c-.225 1.002-.596 1.732-1.116 2.195-.52.46-1.163.69-1.923.69-.956 0-1.73-.367-2.325-1.103-.687-.85-1.028-1.998-1.028-3.442 0-1.526.344-2.72 1.033-3.582.598-.748 1.4-1.123 2.41-1.123.822 0 1.51.28 2.064.842.392.398.682.99.865 1.775l-1.464.427c-.093-.484-.278-.855-.557-1.114-.28-.258-.608-.387-.985-.387-.542 0-.983.236-1.325.71-.34.47-.512 1.248-.512 2.336 0 1.127.168 1.93.5 2.404.334.477.768.714 1.3.714.393 0 .73-.15 1.013-.454.283-.304.49-.785.615-1.443zM96 0H84.227v37.913h-15.01v-7.27c-2.48 5.46-8.432 7.785-13.95 7.833-7.255.063-15.2-5.505-15.2-5.505l4.755-9.818s4.69 4.128 8.757 4.065c4.064-.063 3.374-1.032 3.377-2.126s-5.025-1.506-7.693-2.438c-3.438-1.202-5.36-3.336-6.068-6.522-1.4 11.278-12.415 10.395-12.72 10.395h-4.533v11.392h-14.17V0H0v53.512h96V0z"/></svg>